<?xml version="1.0" encoding="utf-8"?>
<!-- Generator: Adobe Illustrator 24.0.1, SVG Export Plug-In . SVG Version: 6.00 Build 0)  -->
<svg version="1.1" id="Capa_1" xmlns="http://www.w3.org/2000/svg" xmlns:xlink="http://www.w3.org/1999/xlink" x="0px" y="0px"
	 viewBox="0 0 438.5 438.5" style="enable-background:new 0 0 438.5 438.5;" xml:space="preserve">
<style type="text/css">
	.st0{fill:#D0C3E5;}
	.st1{fill:#FFFFFF;}
</style>
<g>
	<path class="st0" d="M359.9,168.7c0,16.2-2,30.5-5.9,43c-3.9,12.5-8.9,22.5-15.1,30c-6.2,7.5-13.9,13.8-23.1,19
		c-9.2,5.1-18.2,8.8-26.8,11.1c-8.6,2.3-18.3,4-29.1,5.1c0,0-0.1,0.1,0,0.1c9.8,8.6,14.7,22,14.7,40.4v60.2c0,1.9,0.4,3.7,1.1,5.3
		c0,0,0.9,1.9,2.4,3.3c1,1,2.3,1.5,3.6,1.9L162,386.3c0-0.5,1.6-1.2,2.7-3.7c0.7-1.5,1-3.1,1-4.9c0-0.6-0.1-5.7-0.1-15.4
		c-0.1-9.7-0.2-18.2-0.2-25.4l-6.6,1.1c-4.2,0.8-9.5,1.1-15.8,1c-6.4-0.1-13-0.8-19.8-2c-6.9-1.2-13.2-4.1-19.1-8.6
		c-5.9-4.5-10.1-10.3-12.6-17.6l-2.9-6.6c-1.9-4.4-4.9-9.2-9-14.6s-8.2-8.9-12.4-10.8l-2-1.4c-1.3-0.9-2.6-2.1-3.7-3.4s-2-2.7-2.6-4
		s-0.1-2.4,1.4-3.3c1.5-0.9,4.3-1.3,8.3-1.3l5.7,0.9c3.8,0.8,8.5,3,14.1,6.8s10.2,8.8,13.9,14.8c4.4,7.8,9.6,13.8,15.8,17.8
		c6.2,4.1,12.4,6.1,18.7,6.1c6.3,0,11.7-0.5,16.3-1.4c4.6-1,8.8-2.4,12.8-4.3c1.7-12.8,6.4-22.6,14-29.4
		c-10.8-1.1-20.6-2.9-29.3-5.1c-8.7-2.3-17.6-6-26.8-11.1s-16.9-11.5-23-19.1c-6.1-7.6-11.1-17.6-15-30c-3.9-12.4-5.8-26.7-5.8-42.8
		c0-23,7.5-42.6,22.6-58.8c-2-6.3-4.4-15.8-4.8-27.5C97.4,70,97,56.3,104.6,51.7c4.6-2.8,11.3-0.6,24.6,3.8
		c10.9,3.6,19.2,8.2,23.8,11c5,3.1,9.1,5.6,12.1,7.7c17.7-4.9,36-7.4,54.8-7.4c18.8,0,37.1,2.5,54.8,7.4l10.8-6.8
		c7.4-4.6,16.2-8.8,26.3-12.6c10.1-3.8,17.8-4.9,23.1-3.1c8.6,21.5,9.3,40.9,2.3,58.2C352.3,126.1,359.9,145.7,359.9,168.7z"/>
</g>
<path class="st1" d="M139,85c13,0.3,26,0.7,39,1"/>
</svg>
