<?xml version="1.0" encoding="utf-8"?>
<!-- Generator: Adobe Illustrator 24.0.1, SVG Export Plug-In . SVG Version: 6.00 Build 0)  -->
<svg version="1.1" id="Capa_1" xmlns="http://www.w3.org/2000/svg" xmlns:xlink="http://www.w3.org/1999/xlink" x="0px" y="0px"
	 viewBox="0 0 343.1 343.1" style="enable-background:new 0 0 343.1 343.1;" xml:space="preserve">
<style type="text/css">
	.st0{fill:#F4E9E9;}
</style>
<g>
	<g>
		<g>
			<path class="st0" d="M276,99.6L176.8,2.5c-2.4-2.9-6.7-3.3-9.6-0.9c-0.3,0.3-0.6,0.6-0.9,0.9L67.1,99.6
				c-3.2,2.9-3.4,7.9-0.4,11.1c1.5,1.6,3.5,2.5,5.6,2.5h47v125.9c0.9,5.3,5.1,9.3,10.4,9.9h83.6c4.2,0,5.2-5.2,5.2-9.9V113.2h52.2
				c4.3-0.1,7.8-3.6,7.7-7.9C278.5,103.1,277.6,101.1,276,99.6z"/>
			<path class="st0" d="M213.3,264.7h-83.6c-4.3,0-7.8,3.5-7.8,7.8s3.5,7.8,7.8,7.8h83.6c4.3,0,7.8-3.5,7.8-7.8
				S217.7,264.7,213.3,264.7z"/>
			<path class="st0" d="M213.3,296.1h-83.6c-4.3,0-7.8,3.5-7.8,7.8s3.5,7.8,7.8,7.8h83.6c4.3,0,7.8-3.5,7.8-7.8
				S217.7,296.1,213.3,296.1z"/>
			<path class="st0" d="M213.3,327.4h-83.6c-4.3,0-7.8,3.5-7.8,7.8s3.5,7.8,7.8,7.8h83.6c4.3,0,7.8-3.5,7.8-7.8
				S217.7,327.4,213.3,327.4z"/>
		</g>
	</g>
</g>
</svg>
