<?xml version="1.0" encoding="utf-8"?>
<!-- Generator: Adobe Illustrator 24.0.1, SVG Export Plug-In . SVG Version: 6.00 Build 0)  -->
<svg version="1.1" id="Capa_1" xmlns="http://www.w3.org/2000/svg" xmlns:xlink="http://www.w3.org/1999/xlink" x="0px" y="0px"
	 viewBox="0 0 480.2 480.2" style="enable-background:new 0 0 480.2 480.2;" xml:space="preserve">
<style type="text/css">
	.st0{fill:#FFFFFF;stroke:#000000;stroke-width:0.75;stroke-miterlimit:10;}
	.st1{fill:#FBFCFA;stroke:#000000;stroke-width:0.75;stroke-miterlimit:10;}
</style>
<g>
	<g>
		<path class="st0" d="M479.9,295.7c-4.4-54.1-49.6-95.7-103.9-95.6c-8.1,0-16.2,0.9-24.1,2.8c-2.6-46.4-35.4-85.6-80.7-96.2
			c-0.7-0.2-1.5-0.3-2.2-0.5c-20.8-33.8-65-44.3-98.8-23.5c-15.8,9.7-27.2,25.1-31.9,43c-32.2-14.6-70.2-0.2-84.7,32
			c-3.7,8.3-5.7,17.2-5.7,26.3c0,2.8,0.2,5.7,0.6,8.5c-30.6,4-52.1,32.1-48.1,62.7c1.7,12.9,7.8,24.7,17.3,33.6
			c-1,1.1-2,2.2-2.8,3.4c-9.7,12.5-15,28-14.9,43.8c0,39.7,32.3,72,72,72h304c3,0,5.8-0.1,8.7-0.3
			C441.9,403.1,484.6,352.9,479.9,295.7z M26.1,221.6c7.6-8.6,18.5-13.5,29.9-13.5h1.4c2.7,0.3,5.3-0.8,7-2.8
			c1.7-2.1,2.3-4.8,1.5-7.4c-1.3-4.5-2-9.1-2-13.8c0-26.5,21.5-48,48-48c9.9-0.1,19.6,3,27.6,8.8c3.6,2.6,8.6,1.8,11.2-1.8
			c0.8-1.2,1.4-2.5,1.5-4c2.8-30.1,28.9-52.6,59.1-50.9c13.5,0.8,26.2,6.4,35.8,16c-0.5,0-1,0.1-1.5,0.1h-0.3
			c-3.7,0.1-7.4,0.4-11.1,0.9l-0.4,0.1c-3.6,0.5-7.2,1.2-10.7,2l-0.6,0.2c-3.4,0.9-6.8,1.9-10.1,3.1l-0.9,0.3
			c-3.1,1.2-6.2,2.5-9.2,3.9c-0.5,0.2-0.9,0.4-1.4,0.7c-2.8,1.4-5.5,3-8.1,4.6c-0.6,0.4-1.2,0.7-1.8,1.1c-2.5,1.6-4.9,3.4-7.2,5.2
			c-0.6,0.5-1.3,0.9-1.9,1.4c-2.9,2.4-5.6,4.9-8.3,7.5c-6.6,6.7-12.2,14.3-16.7,22.5l-0.1,0.1c-0.2,0.4-0.5,0.8-0.6,1.2
			c-3.4,6.3-6.1,12.9-8.1,19.8c-1.7,5.9-2.9,12-3.5,18.2c-0.4,3.7-0.7,7.4-0.6,11.2v1.6c-17.1-3.4-34.8-1.2-50.6,6.2
			c-3.4,1.7-6.8,3.6-10,5.7c-1.9,1.2-3.7,2.6-5.4,4.1c-3,2.4-5.8,5-8.5,7.7c-2.6,2.7-5,5.6-7.1,8.7c-5.4,7.6-9.3,16.1-11.7,25.1
			c-3.5,1.1-6.9,2.4-10.2,4.1c-3.5,1.7-6.8,3.7-10,6c-0.3,0.2-0.7,0.4-1.1,0.6C13,263.4,11.5,238.1,26.1,221.6z M383.3,391.8
			c-2.4,0.2-4.8,0.3-7.3,0.3H72c-30.9,0-56-25.1-56-56c0-12.4,4.1-24.4,11.7-34.1c2.2-2.8,4.6-5.5,7.3-7.8c3.8-3.4,8.1-6.2,12.7-8.5
			c3.7-1.8,7.6-3.2,11.6-4.2c3-0.7,5.3-3.1,6-6.2c1.7-8.6,5.3-16.8,10.3-23.9c1.7-2.4,3.6-4.8,5.6-6.9c2.2-2.4,4.6-4.6,7.2-6.6
			c1.3-1.1,2.6-2.1,4-3c2.6-1.7,5.2-3.3,8-4.6c2-1,4.1-1.8,6.2-2.5c1.5-0.5,3.1-1,4.7-1.4c0.5-0.1,1-0.3,1.6-0.4
			c1.7-0.4,3.4-0.7,5.1-1c0.5-0.1,1-0.2,1.4-0.2c1.5-0.2,3.1-0.3,4.6-0.4c0.8,0,1.5-0.1,2.3-0.1h4.5c0.5,0,1.1,0,1.6,0.1
			c1.5,0.1,3,0.3,4.4,0.5c0.6,0.1,1.1,0.1,1.7,0.2c1.5,0.2,3,0.6,4.5,0.9c0.5,0.1,0.9,0.2,1.4,0.3c1.9,0.5,3.8,1.1,5.6,1.8
			c4.1,1.6,8.8-0.5,10.3-4.6c0.5-1.3,0.6-2.6,0.5-4c-0.5-3.8-0.7-7.6-0.7-11.4c0-3.1,0.2-6.2,0.5-9.3c0.5-5.2,1.6-10.4,3-15.5
			c1.7-5.9,4.1-11.7,7.1-17.1c0.1-0.1,0.1-0.2,0.2-0.3c0.1-0.1,0.2-0.3,0.3-0.5c3.7-6.9,8.5-13.3,14-18.9
			c16.5-17,39.2-26.5,62.9-26.4c2.7,0,5.3,0.2,7.9,0.4c2.3,0.2,4.5,0.5,6.7,0.9l0.5,0.1c1.5,0.2,3,0.5,4.5,0.8
			c39.9,9.3,68.2,44.8,68.4,85.8c0,1.7-0.1,3.5-0.2,5.2c-0.2,4.4,3.2,8.1,7.6,8.3c1,0,2.1-0.1,3.1-0.5c9.5-3.4,19.4-5.1,29.4-5
			c48.6-0.1,88.1,39.2,88.2,87.8C464.3,349.9,429,388.1,383.3,391.8z"/>
		<path class="st1" d="M247.1,104.2c-0.5,0-1,0.1-1.5,0.1h-0.3c-3.7,0.1-7.4,0.4-11.1,0.9l-0.4,0.1c-3.6,0.5-7.2,1.2-10.7,2
			l-0.6,0.2c-3.4,0.9-6.8,1.9-10.1,3.1l-0.9,0.3c-3.1,1.2-6.2,2.5-9.2,3.9c-0.5,0.2-0.9,0.4-1.4,0.7c-2.8,1.4-5.5,3-8.1,4.6
			c-0.6,0.4-1.2,0.7-1.8,1.1c-2.5,1.6-4.9,3.4-7.2,5.2c-0.6,0.5-1.3,0.9-1.9,1.4c-2.9,2.4-5.6,4.9-8.3,7.5
			c-6.6,6.7-12.2,14.3-16.7,22.5l-0.1,0.1c-0.2,0.4-0.5,0.8-0.6,1.2c-3.4,6.3-6.1,12.9-8.1,19.8c-1.7,5.9-2.9,12-3.5,18.2
			c-0.4,3.7-0.7,7.4-0.6,11.2v1.6c-17.1-3.4-34.8-1.2-50.6,6.2c-3.4,1.7-6.8,3.6-10,5.7c-1.9,1.2-3.7,2.6-5.4,4.1
			c-3,2.4-5.8,5-8.5,7.7c-2.6,2.7-5,5.6-7.1,8.7c-5.4,7.6-9.3,16.1-11.7,25.1c-3.5,1.1-6.9,2.4-10.2,4.1c-3.5,1.7-6.8,3.7-10,6
			c-0.3,0.2-0.7,0.4-1.1,0.6c-16.4-14.7-17.9-40-3.3-56.5c7.6-8.6,18.5-13.5,29.9-13.5h1.4c2.7,0.3,5.3-0.8,7-2.8
			c1.7-2.1,2.3-4.8,1.5-7.4c-1.3-4.5-2-9.1-2-13.8c0-26.5,21.5-48,48-48c9.9-0.1,19.6,3,27.6,8.8c3.6,2.6,8.6,1.8,11.2-1.8
			c0.8-1.2,1.4-2.5,1.5-4c2.8-30.1,28.9-52.6,59.1-50.9C224.8,89,237.5,94.6,247.1,104.2z"/>
		<path class="st0" d="M464.2,303.9c0.1,46-35.2,84.2-80.9,87.9c-2.4,0.2-4.8,0.3-7.3,0.3H72c-30.9,0-56-25.1-56-56
			c0-12.4,4.1-24.4,11.7-34.1c2.2-2.8,4.6-5.5,7.3-7.8c3.8-3.4,8.1-6.2,12.7-8.5c3.7-1.8,7.6-3.2,11.6-4.2c3-0.7,5.3-3.1,6-6.2
			c1.7-8.6,5.3-16.8,10.3-23.9c1.7-2.4,3.6-4.8,5.6-6.9c2.2-2.4,4.6-4.6,7.2-6.6c1.3-1.1,2.6-2.1,4-3c2.6-1.7,5.2-3.3,8-4.6
			c2-1,4.1-1.8,6.2-2.5c1.5-0.5,3.1-1,4.7-1.4c0.5-0.1,1-0.3,1.6-0.4c1.7-0.4,3.4-0.7,5.1-1c0.5-0.1,1-0.2,1.4-0.2
			c1.5-0.2,3.1-0.3,4.6-0.4c0.8,0,1.5-0.1,2.3-0.1h4.5c0.5,0,1.1,0,1.6,0.1c1.5,0.1,3,0.3,4.4,0.5c0.6,0.1,1.1,0.1,1.7,0.2
			c1.5,0.2,3,0.6,4.5,0.9c0.5,0.1,0.9,0.2,1.4,0.3c1.9,0.5,3.8,1.1,5.6,1.8c4.1,1.6,8.8-0.5,10.3-4.6c0.5-1.3,0.6-2.6,0.5-4
			c-0.5-3.8-0.7-7.6-0.7-11.4c0-3.1,0.2-6.2,0.5-9.3c0.5-5.2,1.6-10.4,3-15.5c1.7-5.9,4.1-11.7,7.1-17.1c0.1-0.1,0.1-0.2,0.2-0.3
			c0.1-0.1,0.2-0.3,0.3-0.5c3.7-6.9,8.5-13.3,14-18.9c16.5-17,39.2-26.5,62.9-26.4c2.7,0,5.3,0.2,7.9,0.4c2.3,0.2,4.5,0.5,6.7,0.9
			l0.5,0.1c1.5,0.2,3,0.5,4.5,0.8c39.9,9.3,68.2,44.8,68.4,85.8c0,1.7-0.1,3.5-0.2,5.2c-0.2,4.4,3.2,8.1,7.6,8.3
			c1,0,2.1-0.1,3.1-0.5c9.5-3.4,19.4-5.1,29.4-5C424.6,216,464.1,255.3,464.2,303.9z"/>
	</g>
</g>
</svg>
