<?xml version="1.0" encoding="utf-8"?>
<!-- Generator: Adobe Illustrator 24.0.1, SVG Export Plug-In . SVG Version: 6.00 Build 0)  -->
<svg version="1.1" id="Layer_1" xmlns="http://www.w3.org/2000/svg" xmlns:xlink="http://www.w3.org/1999/xlink" x="0px" y="0px"
	 viewBox="0 0 512 512" style="enable-background:new 0 0 512 512;" xml:space="preserve">
<style type="text/css">
	.st0{fill:#FFFFFF;}
	.st1{fill:#FEFFFD;}
</style>
<g>
	<path class="st0" d="M261.4,2.5c-2.7-3-7.2-3.2-10.2-0.6c-0.2,0.2-0.4,0.4-0.6,0.6c-6.9,8.4-168.8,206.9-168.8,335.2
		c0.5,96.2,78.9,173.9,175.1,173.4c95.6-0.5,173-77.8,173.4-173.4C430.2,209.5,268.3,10.9,261.4,2.5z M256,498
		c-88.5-0.1-160.2-71.8-160.3-160.3C95.7,227.3,227.4,54.4,256,18.2c28.6,36.2,160.2,209.1,160.2,319.5
		C416.2,426.2,344.5,497.9,256,498z"/>
	<path class="st1" d="M256,18.2C227.4,54.4,95.7,227.3,95.7,337.7C95.8,426.2,167.5,497.9,256,498c88.5-0.1,160.2-71.8,160.2-160.3
		C416.2,227.3,284.6,54.4,256,18.2z M199.2,244.4c14.9,0,27,12.1,27,27c0,14.9-12.1,27-27,27c-7.5,0-14.2-3-19.1-7.9
		s-7.9-11.6-7.9-19.1C172.2,256.5,184.3,244.4,199.2,244.4z M204.9,417.5c-2.7,2.7-7.2,2.7-9.9,0l-22.6-22.6c-2.7-2.7-2.7-7.2,0-9.9
		l134.7-134.6c2.7-2.7,7.2-2.7,9.9,0l22.6,22.6c2.7,2.7,2.7,7.2-0.1,9.9L204.9,417.5z M318.5,417.8c-14.9,0-27-12.1-27-27
		c0-14.9,12.1-27,27-27s27,12,27,27C345.5,405.7,333.4,417.8,318.5,417.8z"/>
	<path class="st0" d="M339.6,273L317,250.4c-2.7-2.7-7.2-2.7-9.9,0L172.4,385c-2.7,2.7-2.7,7.2,0,9.9l22.6,22.6
		c2.7,2.7,7.2,2.7,9.9,0l134.6-134.6C342.3,280.2,342.3,275.7,339.6,273z M318.3,284.3l-112,112c-3.5,3.5-9.1,3.5-12.7,0
		c-3.5-3.5-3.5-9.2,0-12.7l112-112c3.5-3.5,9.2-3.5,12.7,0c1.8,1.8,2.6,4.1,2.6,6.4S320,282.5,318.3,284.3z"/>
	<path class="st0" d="M318.5,363.8c-14.9,0-27,12.1-27,27c0,14.9,12.1,27,27,27s27-12.1,27-27C345.5,375.8,333.4,363.8,318.5,363.8z
		 M318.5,403.8c-7.2,0-13-5.8-13-13s5.8-13,13-13s13,5.8,13,13C331.5,397.9,325.7,403.7,318.5,403.8z"/>
	<path class="st0" d="M199.2,244.4c-14.9,0-27,12.1-27,27c0,7.4,3,14.2,7.9,19.1s11.6,7.9,19.1,7.9c14.9,0,27-12.1,27-27
		C226.2,256.5,214.1,244.4,199.2,244.4z M199.2,284.4c-7.2,0-13-5.8-13-13c0-7.1,5.8-13,13-13s13,5.8,13,13
		C212.2,278.6,206.4,284.4,199.2,284.4z"/>
</g>
</svg>
