<?xml version="1.0" encoding="utf-8"?>
<!-- Generator: Adobe Illustrator 24.0.1, SVG Export Plug-In . SVG Version: 6.00 Build 0)  -->
<svg version="1.1" id="Layer_1" xmlns="http://www.w3.org/2000/svg" xmlns:xlink="http://www.w3.org/1999/xlink" x="0px" y="0px"
	 viewBox="0 0 479 479" style="enable-background:new 0 0 479 479;" xml:space="preserve">
<style type="text/css">
	.st0{fill:#FFFFFF;}
</style>
<g>
	<path class="st0" d="M335.2,279c-0.1-26.5,21.3-48,47.8-48.1c26.5-0.1,48,21.3,48.1,47.8c-0.4-105.9-86.5-191.4-192.3-191
		C291.7,87.5,334.9,173.2,335.2,279z"/>
	<path class="st0" d="M238.7,87.6C132.9,88,47.4,174.1,47.7,280c-0.1-26.5,21.3-48,47.8-48.1c26.5-0.1,48,21.3,48.1,47.8
		C143.2,173.8,185.8,87.8,238.7,87.6z"/>
	<path class="st0" d="M287.2,231.2c26.5-0.1,48,21.3,48.1,47.8c-0.4-105.8-43.6-191.5-96.5-191.4s-95.5,86.2-95.2,192
		c-0.1-26.5,21.3-48,47.8-48.1c26.5-0.1,48,21.3,48.1,47.8C239.3,252.9,260.7,231.3,287.2,231.2z"/>
</g>
<path class="st0" d="M247.5,79.9V55.7c0-4.4-3.6-8-8-8c-4.4,0-8,3.6-8,8v24.2C124.2,84.2,39.5,172.6,39.7,280c0,4.4,3.6,8,8,8
	s8-3.6,8-8c-0.1-22,17.7-40,39.8-40.1h0.1c22,0,39.8,17.8,39.9,39.8c0,4.4,3.6,8,8,8c1.1,0,2.1-0.2,3.1-0.6c0.2-0.1,0.4-0.3,0.6-0.4
	c0.7-0.3,1.3-0.8,1.9-1.3c0.2-0.2,0.4-0.5,0.5-0.8c0.5-0.5,0.9-1.1,1.2-1.8c0.1-0.4,0.2-0.8,0.2-1.2c0.2-0.6,0.3-1.2,0.4-1.9
	c0-2.7,0.3-5.4,0.8-8c0.1-0.6,0.4-1.2,0.6-1.9c0.4-1.9,1-3.8,1.7-5.6c0.3-0.7,0.7-1.3,1.1-2c0.8-1.7,1.6-3.3,2.6-4.8
	c1.2-1.7,2.5-3.3,3.9-4.7c0.7-0.7,1.4-1.5,2.1-2.1c2.8-2.8,6.1-5.1,9.7-6.7c0.7-0.3,1.3-0.8,1.9-1c1.8-0.7,3.7-1.3,5.6-1.8
	c0.6-0.2,1.3-0.4,1.9-0.6c2.6-0.5,5.3-0.8,8-0.8h0.1c22,0,39.8,17.8,39.9,39.8l0.7,143.8c0.1,30.8,25.1,55.7,55.9,55.7h0.2
	c30.9-0.2,55.8-25.2,55.7-56.1l-0.1-16c0-4.4-3.6-8-8-8s-8,3.6-8,8l0.1,16c0,22-17.8,39.9-39.8,40.1H288c-22,0-39.8-17.8-39.9-39.8
	l-0.7-143.8c0-22,17.8-40,39.8-40.1h0.1c10.5,0,20.7,4.2,28.1,11.6c1.9,1.9,3.6,3.9,5,6.1c1,1.6,1.9,3.2,2.7,4.9
	c0.3,0.6,0.7,1.2,1,1.9c0.6,1.7,1.2,3.4,1.6,5.1c0.2,0.8,0.5,1.5,0.7,2.3c0.2,1.4,0.3,2.7,0.4,4.1c0.1,1.3,0.4,2.5,0.4,3.7
	c0,4.4,3.6,8,8,8c1.1,0,2.1-0.2,3.1-0.6c0.3-0.2,0.6-0.4,0.9-0.6c1.1-0.4,2-1.3,2.5-2.4c0.3-0.4,0.6-0.8,0.9-1.3
	c0.2-0.5,0.3-1,0.3-1.5c0.2-0.5,0.3-1.1,0.3-1.6c0-22,17.8-40,39.8-40.1h0.1c22,0,39.8,17.8,39.9,39.8c0,4.4,3.6,8,8,8
	c4.4,0,8-3.6,8-8C438.6,171.9,354.2,84.3,247.5,79.9z M95.6,223.9h-0.2c-12.6,0-24.8,4.3-34.6,12.2
	c15.8-64.7,65.3-115.8,129.4-133.7c-10.7,11.2-19.6,24.1-26.3,38.1c-15,32.2-24.1,66.8-26.7,102.2
	C126.7,230.7,111.5,223.9,95.6,223.9z M287.1,223.3c-19.6,0.1-37.8,10.5-47.8,27.3c-10.1-16.7-28.3-27-47.8-27h-0.2
	c-1.8,0-3.6,0.1-5.4,0.3c-0.5,0.1-1,0.2-1.5,0.2c-1.3,0.2-2.5,0.3-3.8,0.6c-0.6,0.1-1.2,0.3-1.8,0.4c-1.1,0.3-2.3,0.5-3.4,0.8
	c-0.6,0.2-1.3,0.4-1.9,0.7c-1,0.4-2.1,0.7-3.1,1.1c-0.7,0.3-1.3,0.6-1.9,0.9c-1,0.4-1.9,0.9-2.9,1.4c-0.7,0.3-1.3,0.7-1.9,1.1
	c-0.9,0.5-1.8,1-2.7,1.6c-0.6,0.4-1.2,0.9-1.9,1.3c-0.8,0.6-1.7,1.2-2.5,1.8c-0.6,0.5-1.2,1-1.8,1.5c-0.4,0.4-0.9,0.7-1.3,1.1
	c2.9-31.5,11.2-62.2,24.7-90.8c16.6-33.4,38-51.8,60.4-51.9h0.1c40.8,0,76.3,61.7,85.9,142c-0.4-0.3-0.8-0.6-1.2-1
	c-0.6-0.5-1.3-1.1-1.9-1.6c-0.6-0.5-1.5-1.1-2.3-1.7c-0.8-0.5-1.4-1-2.1-1.4c-0.7-0.4-1.6-1-2.4-1.4c-0.8-0.5-1.4-0.8-2.2-1.2
	c-0.7-0.4-1.7-0.8-2.5-1.2c-0.7-0.3-1.5-0.7-2.2-1c-0.9-0.4-1.8-0.7-2.7-1c-0.7-0.3-1.5-0.5-2.2-0.7c-1-0.3-2-0.5-3-0.7
	c-0.7-0.2-1.4-0.4-2.1-0.5c-1.1-0.2-2.3-0.4-3.5-0.5c-0.6-0.1-1.2-0.2-1.8-0.2c-1.8-0.2-3.6-0.3-5.4-0.3L287.1,223.3z M383.2,222.9
	H383c-16,0.1-31.1,7-41.6,19c-6-61.5-26.1-112.3-53.9-139.8c64.2,17.5,113.9,68.3,130.2,132.8C407.8,227.1,395.7,222.9,383.2,222.9z
	"/>
</svg>
