<?xml version="1.0" encoding="utf-8"?>
<!-- Generator: Adobe Illustrator 24.0.1, SVG Export Plug-In . SVG Version: 6.00 Build 0)  -->
<svg version="1.1" id="Capa_1" xmlns="http://www.w3.org/2000/svg" xmlns:xlink="http://www.w3.org/1999/xlink" x="0px" y="0px"
	 viewBox="0 0 512 512" style="enable-background:new 0 0 512 512;" xml:space="preserve">
<style type="text/css">
	.st0{fill:#FFFFFF;}
	.st1{fill:#FCFCFC;}
</style>
<path class="st0" d="M309,295.5V53c0-29.3-23.7-53-53-53l0,0c-29.3,0-53,23.7-53,53v242.5c-40,20.9-66.3,64.6-61.2,113.9
	c5.5,52.9,48.2,96,101,101.9c69.2,7.7,127.9-46.3,127.9-114C370.8,353,345.7,314.6,309,295.5z"/>
<path class="st1" d="M273.7,328.9V167.7c0-9.8-7.9-17.7-17.7-17.7c-9.7,0-17.7,7.9-17.7,17.7v161.2c-30.4,7.9-53,35.4-53,68.3
	c0,39,31.6,70.6,70.6,70.6s70.6-31.6,70.6-70.6C326.6,364.4,304.1,336.8,273.7,328.9z"/>
</svg>
