<?xml version="1.0" encoding="utf-8"?>
<!-- Generator: Adobe Illustrator 24.0.1, SVG Export Plug-In . SVG Version: 6.00 Build 0)  -->
<svg version="1.1" id="Capa_1" xmlns="http://www.w3.org/2000/svg" xmlns:xlink="http://www.w3.org/1999/xlink" x="0px" y="0px"
	 viewBox="0 0 512 512" style="enable-background:new 0 0 512 512;" xml:space="preserve">
<style type="text/css">
	.st0{fill:#FFFFFF;}
</style>
<g>
	<path class="st0" d="M256,512c6.3,0,11.3-5.1,11.3-11.3v-31.5c50.3-2.6,96.1-22.8,131.3-54.5L421,437c4.4,4.4,11.6,4.4,16,0
		c4.4-4.4,4.4-11.6,0-16l-22.4-22.4c31.7-35.2,51.8-81,54.5-131.3h31.5c6.3,0,11.3-5.1,11.3-11.3c0-6.3-5.1-11.3-11.3-11.3h-31.5
		c-2.6-50.3-22.8-96.1-54.5-131.3L437,91c4.4-4.4,4.4-11.6,0-16c-4.4-4.4-11.6-4.4-16,0l-22.4,22.4c-35.2-31.7-81-51.8-131.3-54.5
		V11.3C267.3,5.1,262.3,0,256,0c-6.3,0-11.3,5.1-11.3,11.3v31.6c-18,0.9-35.8,4.1-53,9.5c-6,1.9-9.3,8.2-7.4,14.2
		c1.9,6,8.2,9.3,14.2,7.4C435.4,10.9,545.8,329,333,430.5C104.7,519.9-41.1,214,161.7,90.1c5.4-3.1,7.3-10,4.2-15.5
		c-3.1-5.4-10-7.3-15.5-4.2c-13.5,7.7-25.9,16.7-37.1,26.9L91,75c-4.4-4.4-11.6-4.4-16,0c-4.4,4.4-4.4,11.6,0,16l22.4,22.4
		c-32.2,35.9-51.8,82.2-54.4,131.3H11.3C5.1,244.7,0,249.7,0,256c0,6.3,5.1,11.3,11.3,11.3h31.5c2.6,50.3,22.8,96.1,54.5,131.3
		L75,421c-4.4,4.4-4.4,11.6,0,16c4.4,4.4,11.6,4.4,16,0l22.4-22.4c35.2,31.7,81,51.8,131.3,54.5v31.5C244.7,506.9,249.7,512,256,512
		L256,512z M164.9,193.9c-6.3,0-11.3,5.1-11.3,11.3v69.9c0,15,6.9,26.8,21.2,35.9c7.4,4.7,15.7,7.1,24.8,7.1h0.1
		c7.8,0,15.2-1.7,21.8-5c21-10.6,25.4-26.5,25.4-38v-69.8c0-6.3-5.1-11.3-11.3-11.3s-11.3,5.1-11.3,11.3V275c0,5.3-1.5,12-12.9,17.8
		c-3.5,1.7-7.4,2.6-11.6,2.6h0c-4.7,0-8.9-1.2-12.6-3.6c-7.6-4.9-10.7-9.7-10.7-16.8v-69.9C176.3,199,171.2,193.9,164.9,193.9
		L164.9,193.9z M321.9,318.1C321.9,318.1,322,318.1,321.9,318.1c5.9,0,11-3.8,12.9-9.3L368,209c2-5.9-1.2-12.4-7.2-14.3
		c-5.9-2-12.4,1.2-14.3,7.2l-24.8,74.5l-26-74.9c-2-5.9-8.5-9-14.4-7c-5.9,2.1-9,8.5-7,14.4L309.1,309
		C311,314.5,316.1,318.1,321.9,318.1L321.9,318.1z"/>
</g>
</svg>
